<?xml version="1.0" standalone="no"?><!DOCTYPE svg PUBLIC "-//W3C//DTD SVG 1.1//EN" "http://www.w3.org/Graphics/SVG/1.1/DTD/svg11.dtd"><svg t="1679557277427" class="icon" viewBox="0 0 1024 1024" version="1.1" xmlns="http://www.w3.org/2000/svg" p-id="7047" id="mx_n_1679557277428" xmlns:xlink="http://www.w3.org/1999/xlink" width="200" height="200"><path d="M781.11 781.11H242.89c-40.47 0-73.39-32.92-73.39-73.39V414.14c0-40.47 32.92-73.39 73.39-73.39h66.75l10.76-42.48c8.27-32.61 37.52-55.38 71.15-55.38h240.89c33.64 0 62.9 22.78 71.15 55.39l10.76 42.47h66.75c40.47 0 73.39 32.92 73.39 73.39v293.57c0.01 40.48-32.91 73.4-73.38 73.4zM242.89 389.68c-13.49 0-24.46 10.98-24.46 24.46v293.57c0 13.49 10.98 24.46 24.46 24.46H781.1c13.49 0 24.46-10.98 24.46-24.46V414.14c0-13.49-10.98-24.46-24.46-24.46h-66.75c-22.42 0-41.93-15.18-47.42-36.92l-10.76-42.47a24.452 24.452 0 0 0-23.72-18.47h-240.9c-11.2 0-20.96 7.6-23.72 18.47l-10.76 42.48c-5.49 21.73-25 36.91-47.42 36.91h-66.76z" p-id="7048" fill="#c4c7ce"></path><path d="M512 683.25c-80.94 0-146.79-65.84-146.79-146.79S431.06 389.68 512 389.68s146.79 65.84 146.79 146.79S592.94 683.25 512 683.25z m0-244.64c-53.96 0-97.86 43.9-97.86 97.86s43.9 97.86 97.86 97.86 97.86-43.9 97.86-97.86-43.9-97.86-97.86-97.86z" p-id="7049" fill="#c4c7ce"></path></svg>